<?xml version="1.0" encoding="UTF-8"?>
<svg version="1.1" xmlns="http://www.w3.org/2000/svg" width="1536" height="1024">
<path d="M0 0 C506.88 0 1013.76 0 1536 0 C1536 337.92 1536 675.84 1536 1024 C1029.12 1024 522.24 1024 0 1024 C0 686.08 0 348.16 0 0 Z " fill="#F2F6FB" transform="translate(0,0)"/>
<path d="M0 0 C3.17779233 0.0000812 6.35544032 -0.006869 9.53320312 -0.02050781 C25.56425994 -0.08829373 41.45508883 -0.03505263 57.43293762 1.44943237 C64.04343205 2.05969122 70.60434043 2.395034 77.2421875 2.49389648 C78.13582001 2.50741653 79.02945251 2.52093658 79.95016479 2.53486633 C83.52376886 2.58179376 87.09731745 2.61677662 90.67114258 2.64160156 C106.21473616 2.7690425 120.82685042 4.24908749 135.77734375 8.62280273 C143.94684213 10.9879064 152.11372321 12.5757121 160.48828125 14.03295898 C190.92377618 19.33589527 221.39760784 25.36133971 251.02734375 34.18530273 C251.86120605 34.4321582 252.69506836 34.67901367 253.55419922 34.93334961 C265.35908138 38.44157617 277.10705165 42.13128562 288.83984375 45.87280273 C290.00177246 46.24115234 291.16370117 46.60950195 292.36083984 46.98901367 C298.12577785 48.83973483 303.78369644 50.80893699 309.38354492 53.11083984 C312.48179868 54.36999718 315.60344205 55.55800813 318.73046875 56.74389648 C372.85321168 77.34357602 423.43504253 103.02421543 471.02734375 136.18530273 C470.03734375 136.51530273 469.04734375 136.84530273 468.02734375 137.18530273 C465.84963669 135.96302711 463.87426954 134.70379492 461.83203125 133.28295898 C454.20500925 128.18076624 446.27624735 123.87272627 438.15234375 119.62280273 C436.80961521 118.91304691 435.46716679 118.20276089 434.125 117.49194336 C400.12203074 99.53467662 365.40989933 83.56166996 329.25003052 70.46124268 C325.85852172 69.23060765 322.47728383 67.98142274 319.11376953 66.67602539 C309.42858274 62.92802229 299.62531413 59.84547598 289.65393066 56.95031738 C287.02267923 56.18394416 284.39520835 55.40575459 281.76855469 54.6237793 C257.35556333 47.36300988 232.93383349 40.53696261 208.02734375 35.18530273 C207.37975098 35.04541931 206.7321582 34.90553589 206.06494141 34.76141357 C191.18383183 31.55426191 176.32260727 28.86246351 161.2421875 26.7980957 C151.13803729 25.34592199 141.27709175 23.08231044 131.375 20.64648438 C118.01095987 17.36317271 105.58673998 15.89488504 91.8656311 15.72116089 C87.05974873 15.65907758 82.25450966 15.5674325 77.44921875 15.47045898 C76.47721024 15.4508461 75.50520172 15.43123322 74.5037384 15.411026 C66.33363053 15.22818768 58.19465137 14.78499165 50.04043579 14.26205444 C12.64601859 11.89576555 -24.67830538 12.72785945 -61.97265625 16.18530273 C-62.73737244 16.25555664 -63.50208862 16.32581055 -64.28997803 16.39819336 C-96.84570685 19.42129469 -129.14407894 24.80215845 -161.16015625 31.37280273 C-161.95160034 31.53502319 -162.74304443 31.69724365 -163.55847168 31.86437988 C-172.93019165 33.79771189 -182.22291139 35.95211973 -191.49584961 38.3125 C-195.53341332 39.3260728 -199.58591507 40.21067377 -203.66015625 41.06030273 C-211.12957457 42.671466 -218.44388885 44.67800923 -225.77490234 46.82666016 C-233.52600059 49.09077802 -241.32640984 51.13006194 -249.15893555 53.09301758 C-253.91220716 54.30368064 -258.47223284 55.67139689 -263.03881836 57.45947266 C-266.49608886 58.75709483 -270.05155744 59.72471835 -273.59765625 60.74780273 C-282.70495666 63.42688752 -291.71932073 66.36688802 -300.72265625 69.37280273 C-301.69564667 69.69681564 -301.69564667 69.69681564 -302.68829346 70.02737427 C-308.78100469 72.0585031 -314.86672007 74.08914554 -320.86474609 76.38671875 C-323.61810094 77.42983014 -326.38711419 78.42703487 -329.15625 79.42749023 C-352.41561725 87.85690755 -375.43387576 96.85852759 -398.34765625 106.18530273 C-399.1778125 106.52255371 -400.00796875 106.85980469 -400.86328125 107.20727539 C-406.02406568 109.32552359 -411.10592085 111.58911119 -416.17724609 113.9128418 C-419.81874348 115.57043869 -423.48358995 117.17173352 -427.15014648 118.77294922 C-448.73413297 128.19996494 -470.14210203 138.02173208 -491.53515625 147.87280273 C-493.10317993 148.59391235 -493.10317993 148.59391235 -494.70288086 149.32958984 C-499.02680396 151.32631614 -503.32329905 153.34589675 -507.5625 155.51733398 C-510.97265625 157.18530273 -510.97265625 157.18530273 -512.97265625 157.18530273 C-512.97265625 156.52530273 -512.97265625 155.86530273 -512.97265625 155.18530273 C-511.45751953 154.00292969 -511.45751953 154.00292969 -509.29296875 152.67358398 C-508.48045654 152.17117188 -507.66794434 151.66875977 -506.83081055 151.15112305 C-505.92886963 150.60552734 -505.02692871 150.05993164 -504.09765625 149.49780273 C-503.15510986 148.92255859 -502.21256348 148.34731445 -501.24145508 147.75463867 C-459.68519286 122.53531558 -416.51172512 100.61618383 -371.97265625 81.18530273 C-371.1007666 80.80470703 -370.22887695 80.42411133 -369.33056641 80.03198242 C-347.51492857 70.56389799 -325.26192753 62.10469901 -302.83886719 54.1965332 C-300.10270068 53.23118383 -297.36947135 52.25792275 -294.63671875 51.28295898 C-276.29370868 44.76502218 -257.79220936 39.1573506 -238.97265625 34.18530273 C-237.99651367 33.92716797 -237.02037109 33.6690332 -236.01464844 33.40307617 C-229.33954659 31.64210618 -222.65830834 29.90575242 -215.97265625 28.18530273 C-214.91135498 27.91121582 -214.91135498 27.91121582 -213.82861328 27.6315918 C-200.60535611 24.22705934 -187.29992438 21.15308974 -173.97265625 18.18530273 C-173.01907227 17.97260742 -172.06548828 17.75991211 -171.08300781 17.54077148 C-139.91489823 10.70033682 -108.21706884 6.33704953 -76.47265625 3.31030273 C-75.39607758 3.20693604 -74.3194989 3.10356934 -73.21029663 2.99707031 C-48.78380193 0.68176719 -24.52131382 -0.00310144 0 0 Z " fill="#2E3C61" transform="translate(792.97265625,442.814697265625)"/>
<path d="M0 0 C2.07186088 -0.00970199 4.14272719 -0.04075048 6.21435547 -0.07226562 C7.53048828 -0.07742188 8.84662109 -0.08257812 10.20263672 -0.08789062 C11.40259277 -0.09723633 12.60254883 -0.10658203 13.83886719 -0.11621094 C19.02235577 0.43179003 22.23709698 2.37268129 26.08544922 5.80273438 C28.3666548 8.67387579 28.44361805 10.83929862 28.34326172 14.45507812 C28.32408691 15.35218506 28.30491211 16.24929199 28.28515625 17.17358398 C28.26050293 17.85557861 28.23584961 18.53757324 28.21044922 19.24023438 C29.20375244 19.21405029 30.19705566 19.18786621 31.22045898 19.16088867 C34.93083884 19.06990137 38.64112158 19.01281135 42.35229492 18.96557617 C43.95370099 18.94054158 45.55499404 18.90650275 47.15600586 18.86303711 C49.4674069 18.80188893 51.77728888 18.77391623 54.08935547 18.75195312 C55.15072472 18.71324348 55.15072472 18.71324348 56.23353577 18.67375183 C60.96910083 18.6711225 64.01726492 19.6626561 67.60723877 22.60116577 C73.68601083 28.81589849 74.77961076 34.89132522 74.77693176 43.40785217 C74.75112534 44.67382736 74.72531891 45.93980255 74.69873047 47.24414062 C74.68811836 49.22268288 74.68811836 49.22268288 74.67729187 51.24119568 C74.65835879 54.71860653 74.6093822 58.19494419 74.55377197 61.67193604 C74.50227925 65.23166391 74.47971441 68.79156816 74.45458984 72.3515625 C74.40124542 79.31488916 74.31610404 86.27751 74.21044922 93.24023438 C72.23044922 93.24023438 70.25044922 93.24023438 68.21044922 93.24023438 C68.20498077 92.13269302 68.20498077 92.13269302 68.19940186 91.0027771 C68.16146383 84.02895096 68.10454526 77.05550723 68.02654648 70.08202171 C67.98711321 66.49720867 67.95490484 62.91263971 67.93945312 59.32763672 C67.92425848 55.86490697 67.88976514 52.40284845 67.8421402 48.94041824 C67.82018169 46.98303697 67.81797789 45.02546619 67.81610107 43.06796265 C67.74010691 34.33356904 67.74010691 34.33356904 63.21044922 27.24023438 C60.58593804 25.92797879 58.63574647 26.17864917 55.71044922 26.24023438 C50.43267144 26.35134549 50.43267144 26.35134549 48.21044922 25.24023438 C45.88239496 25.13517777 43.57388729 25.17789955 41.24414062 25.21118164 C40.57302246 25.22076904 39.9019043 25.23035645 39.21044922 25.24023438 C39.63677643 25.6411731 40.06310364 26.04211182 40.50234985 26.4552002 C46.51492023 33.0518915 45.98579177 40.05285428 45.79638672 48.45898438 C45.78517834 49.92726905 45.77664592 51.39557635 45.7706604 52.8638916 C45.74789003 56.70478661 45.68907385 60.5442926 45.62243652 64.38464355 C45.56075568 68.31287857 45.53359079 72.24134086 45.50341797 76.16992188 C45.43931462 83.86065526 45.33708415 91.55024926 45.21044922 99.24023438 C43.23044922 99.24023438 41.25044922 99.24023438 39.21044922 99.24023438 C39.21044922 89.34023438 39.21044922 79.44023437 39.21044922 69.24023438 C7.86044922 69.24023438 -23.48955078 69.24023438 -55.78955078 69.24023438 C-55.78955078 88.05023438 -55.78955078 106.86023438 -55.78955078 126.24023438 C-58.75955078 126.73523438 -58.75955078 126.73523438 -61.78955078 127.24023438 C-61.90554544 114.99204051 -61.99431769 102.74397793 -62.04861164 90.49534607 C-62.07467384 84.80740925 -62.1100109 79.11984902 -62.16674805 73.43212891 C-62.22118721 67.94022942 -62.25099672 62.44869152 -62.263937 56.95654297 C-62.27315543 54.86419993 -62.29115708 52.77187606 -62.31820107 50.6796875 C-62.35464914 47.74240799 -62.35948949 44.80661091 -62.35717773 41.86914062 C-62.37515411 41.00958267 -62.39313049 40.15002472 -62.41165161 39.26441956 C-62.35931183 33.09373225 -60.67654073 29.03850751 -56.78955078 24.24023438 C-52.2999451 20.16826644 -49.9049467 19.11346061 -43.90673828 19.14257812 C-42.74013672 19.14580078 -41.57353516 19.14902344 -40.37158203 19.15234375 C-39.14826172 19.16072266 -37.92494141 19.16910156 -36.66455078 19.17773438 C-35.43349609 19.18224609 -34.20244141 19.18675781 -32.93408203 19.19140625 C-29.88585686 19.20322108 -26.83772764 19.2196941 -23.78955078 19.24023438 C-23.8461084 18.23682007 -23.8461084 18.23682007 -23.90380859 17.21313477 C-24.14469706 9.9275821 -24.14469706 9.9275821 -22.39892578 6.54882812 C-21.47853516 5.62263672 -21.47853516 5.62263672 -20.53955078 4.67773438 C-19.93626953 4.03707031 -19.33298828 3.39640625 -18.71142578 2.73632812 C-13.5927523 -1.2483303 -6.14254179 0.0174133 0 0 Z M-53.78955078 29.24023438 C-59.16438928 39.98991137 -55.78955078 53.22173012 -55.78955078 65.24023438 C-24.43955078 65.24023438 6.91044922 65.24023438 39.21044922 65.24023438 C41.81325534 40.86979878 41.81325534 40.86979878 33.77294922 27.49023438 C29.56754576 24.12591161 25.18166857 23.97715368 19.9609375 23.93383789 C19.24968719 23.92551437 18.53843689 23.91719086 17.80563354 23.90861511 C15.46395325 23.88460063 13.12255193 23.87575393 10.78076172 23.86914062 C9.14557821 23.86016824 7.51039551 23.85104629 5.87521362 23.84178162 C2.45064299 23.82531265 -0.97383011 23.81759525 -4.3984375 23.81469727 C-8.77551489 23.80931353 -13.15166939 23.77162578 -17.52848625 23.7259531 C-20.90523588 23.69613634 -24.28176439 23.68897273 -27.65863419 23.68797112 C-29.27172195 23.68377846 -30.88481096 23.67138253 -32.4977684 23.65045357 C-44.22301999 23.22677518 -44.22301999 23.22677518 -53.78955078 29.24023438 Z " fill="#3F5078" transform="translate(567.78955078125,359.759765625)"/>
<path d="M0 0 C4.14418615 -0.12442129 8.28735819 -0.21471744 12.43286133 -0.2746582 C13.84028075 -0.2996668 15.24757206 -0.33368615 16.65454102 -0.37719727 C29.8299637 -0.77418802 29.8299637 -0.77418802 34.15234375 1.95703125 C39.58283408 7.32115604 42.27106451 12.86275475 42.56762695 20.52954102 C42.56684319 23.02113635 42.53906093 25.5128283 42.48828125 28.00390625 C42.48120651 29.32293442 42.47413177 30.64196259 42.46684265 32.0009613 C42.44790957 35.47837215 42.39893298 38.95470982 42.34332275 42.43170166 C42.29183003 45.99142953 42.26926519 49.55133379 42.24414062 53.11132812 C42.1907962 60.07465478 42.10565482 67.03727562 42 74 C40.02 74 38.04 74 36 74 C35.99453156 72.89245865 35.99453156 72.89245865 35.98895264 71.76254272 C35.95101461 64.78871658 35.89409604 57.81527286 35.81609726 50.84178734 C35.77666399 47.25697429 35.74445562 43.67240533 35.72900391 40.08740234 C35.71380926 36.6246726 35.67931592 33.16261408 35.63169098 29.70018387 C35.60973247 27.74280259 35.60752867 25.78523181 35.60565186 23.82772827 C35.52965769 15.09333466 35.52965769 15.09333466 31 8 C28.37548883 6.68774441 26.42529726 6.93841479 23.5 7 C18.22222222 7.11111111 18.22222222 7.11111111 16 6 C14.22834199 6.03138203 12.45721918 6.0988943 10.6875 6.1875 C6.73800557 6.23414757 5.30100238 6.17706023 1.8125 4.125 C0 2 0 2 0 0 Z " fill="#44557B" transform="translate(600,379)"/>
<path d="M0 0 C0.67530258 -0.00241196 1.35060516 -0.00482391 2.04637146 -0.00730896 C3.46936943 -0.0063322 4.89240618 0.00702138 6.31518555 0.03198242 C8.49333501 0.06636271 10.66744052 0.05262336 12.84570312 0.03320312 C14.23048601 0.04010026 15.61525844 0.04977147 17 0.0625 C18.88634155 0.0788147 18.88634155 0.0788147 20.81079102 0.09545898 C23.93359375 0.62890625 23.93359375 0.62890625 25.86694336 2.16430664 C26.93359375 4.62890625 26.93359375 4.62890625 26.93359375 12.62890625 C14.39359375 12.62890625 1.85359375 12.62890625 -11.06640625 12.62890625 C-11.06640625 5.62890625 -11.06640625 5.62890625 -9.50805664 2.73071289 C-6.23542054 -0.08641781 -4.28397516 -0.00246789 0 0 Z " fill="#EFF1F6" transform="translate(562.06640625,366.37109375)"/>
<path d="M0 0 C0 0.99 0 1.98 0 3 C-4.31275198 4.05995228 -8.49824799 4.13525775 -12.91137695 4.11352539 C-14.08290062 4.11374443 -14.08290062 4.11374443 -15.27809143 4.1139679 C-17.84818339 4.1132737 -20.41820202 4.10550446 -22.98828125 4.09765625 C-24.77475444 4.09579032 -26.56122814 4.09436724 -28.34770203 4.09336853 C-33.04124371 4.08955716 -37.73475427 4.07973867 -42.42828369 4.06866455 C-47.22106505 4.05842075 -52.01385146 4.05386455 -56.80664062 4.04882812 C-66.20444073 4.03811514 -75.60221777 4.02105531 -85 4 C-85 3.67 -85 3.34 -85 3 C-77.08 2.67 -69.16 2.34 -61 2 C-61 1.67 -61 1.34 -61 1 C-53.27703233 0.85681369 -45.55404917 0.71448676 -37.83105469 0.57275391 C-35.20442344 0.52444879 -32.57779579 0.47594781 -29.95117188 0.42724609 C-26.1731864 0.35723048 -22.39518851 0.28792197 -18.6171875 0.21875 C-16.85905228 0.18593933 -16.85905228 0.18593933 -15.06539917 0.15246582 C-13.964711 0.13244507 -12.86402283 0.11242432 -11.72998047 0.09179688 C-10.28436234 0.06514954 -10.28436234 0.06514954 -8.80953979 0.03796387 C-5.87268716 -0.00172031 -2.93708434 -0.0063784 0 0 Z " fill="#354870" transform="translate(607,425)"/>
<path d="M0 0 C14.75764061 6.37767383 27.88167858 16.82181046 41 26 C40.01 26.33 39.02 26.66 38 27 C35.55859375 25.62109375 35.55859375 25.62109375 32.4375 23.4375 C25.28383683 18.5881514 17.74326492 14.49829287 10.125 10.4375 C9.52767059 10.11868866 8.93034119 9.79987732 8.31491089 9.47140503 C4.88063927 7.63994675 1.44215858 5.81658696 -2 4 C-1.34 2.68 -0.68 1.36 0 0 Z " fill="#424E70" transform="translate(1223,553)"/>
<path d="M0 0 C0 1.65 0 3.3 0 5 C-3.26976016 6.4815473 -6.54098785 7.95982591 -9.8125 9.4375 C-10.74126953 9.85837891 -11.67003906 10.27925781 -12.62695312 10.71289062 C-13.51962891 11.11572266 -14.41230469 11.51855469 -15.33203125 11.93359375 C-16.15421143 12.30540771 -16.9763916 12.67722168 -17.82348633 13.06030273 C-20 14 -20 14 -23 15 C-23 14.34 -23 13.68 -23 13 C-21.10400391 11.57958984 -21.10400391 11.57958984 -18.4765625 9.9609375 C-17.538125 9.38085938 -16.5996875 8.80078125 -15.6328125 8.203125 C-14.64023437 7.59984375 -13.64765625 6.9965625 -12.625 6.375 C-11.64015625 5.76398437 -10.6553125 5.15296875 -9.640625 4.5234375 C-2.26984515 0 -2.26984515 0 0 0 Z " fill="#3F4D70" transform="translate(303,585)"/>
<path d="M0 0 C1.60332791 -0.08121924 3.20784026 -0.13929134 4.8125 -0.1875 C6.15248047 -0.23970703 6.15248047 -0.23970703 7.51953125 -0.29296875 C10.41647515 0.04918998 11.22555028 0.75393573 13 3 C10.64722731 5.72426311 8.37503669 6.8141763 5 8 C2.525 4.04 2.525 4.04 0 0 Z " fill="#EAECF2" transform="translate(606,384)"/>
<path d="M0 0 C0 0.99 0 1.98 0 3 C-3.67387495 3.85298376 -7.0447393 4.10789471 -10.8125 4.0625 C-12.27623047 4.04896484 -12.27623047 4.04896484 -13.76953125 4.03515625 C-14.87361328 4.01775391 -14.87361328 4.01775391 -16 4 C-11.78672154 -0.74789385 -6.00728599 -0.14651917 0 0 Z " fill="#2F4169" transform="translate(607,425)"/>
<path d="M0 0 C2.64 1.32 5.28 2.64 8 4 C7.01 5.485 7.01 5.485 6 7 C0.25 5.25 0.25 5.25 -2 3 C-1.34 2.01 -0.68 1.02 0 0 Z " fill="#3A4769" transform="translate(1223,553)"/>
</svg>
